<svg xmlns="http://www.w3.org/2000/svg" viewBox="0 0 190.99 254.88"><defs><style>.cls-1{isolation:isolate;}.cls-2{fill:#f2ae75;}.cls-3,.cls-6{fill:#f7cdb9;mix-blend-mode:multiply;}.cls-4{fill:#f05d44;}.cls-5{fill:#e6e7e8;}.cls-6{opacity:0.8;}.cls-7{fill:#3c2417;}.cls-8{fill:#fff;}.cls-9{fill:#4f3c30;}</style></defs><title>player</title><g class="cls-1"><g id="Layer_2" data-name="Layer 2"><g id="Layer_1-2" data-name="Layer 1"><g id="man"><polygon class="cls-2" points="113.75 105.04 109.46 103.07 109.46 89.44 81.96 89.44 81.96 103.07 77.65 104.92 78.8 143.56 81.96 143.56 81.96 149.49 109.46 149.49 109.46 143.56 112.6 143.56 113.75 105.04"/><polygon class="cls-3" points="109.46 90.83 109.46 103.07 81.95 96.13 81.95 90.83 109.46 90.83"/><path class="cls-4" d="M78.06,104.66S77,124,95.5,124s17.43-19.33,17.43-19.33c33.3,12,37,8,58.34,40.36-8.18,9.83-20.08,15.19-25.59,15.09-1.44,0-4.58-4.69-4.58-4.69s-3.7,34.71-4.19,63.12c0,0,2.65,36.34,2.11,36.34H52c-.55,0,2.1-36.34,2.1-36.34-.49-28.41-4.19-63.12-4.19-63.12s-3.14,4.67-4.57,4.69c-5.52.1-17.42-5.26-25.6-15.09C41,112.65,44.76,116.63,78.06,104.66Z"/><path class="cls-5" d="M80,122c3.67,3.86,8.9,5.82,15.53,5.82s11.85-2,15.52-5.82c4.8-5,5.93-12.2,6.18-15.94l3.94,1.23c-.41,4.49-1.92,11.9-7.19,17.45-4.46,4.71-10.67,7.09-18.45,7.09s-14-2.38-18.46-7.09c-5.27-5.56-6.78-13-7.19-17.45L73.79,106C74,109.74,75.17,116.93,80,122Z"/><path class="cls-2" d="M57.54,211.19a20.66,20.66,0,0,0-14.17-3.87,3,3,0,0,0-2,3.49,2.59,2.59,0,0,0,3.31,1.88,6.38,6.38,0,0,1,.95,0,17.57,17.57,0,0,1,2.27.32,15.46,15.46,0,0,1,6.21,2.72,2.87,2.87,0,0,0,3.48-4.56Z"/><path class="cls-2" d="M2.73,184l31.2,32.43,13.59,15c2.39,1.81,4,2,5.61.82a13.29,13.29,0,0,0,2.59-2.76c2.87-3.77,5.77-9,2.23-11.72l-1.43-1.64L54,213.21l-5-5.66L23.84,178.79,42,159.69c-5.89-1.38-14.73-6.1-21.44-13.68L2.19,170.67A10.33,10.33,0,0,0,2.73,184Z"/><path class="cls-2" d="M133.46,211.19a20.64,20.64,0,0,1,14.16-3.87,3,3,0,0,1,2,3.49,2.59,2.59,0,0,1-3.31,1.88,6.24,6.24,0,0,0-.94,0,17.11,17.11,0,0,0-2.27.32,15.49,15.49,0,0,0-6.22,2.72,2.87,2.87,0,0,1-3.47-4.56Z"/><path class="cls-2" d="M188.26,184l-31.2,32.43-13.59,15c-2.38,1.81-3.95,2-5.6.82a13,13,0,0,1-2.59-2.76c-2.88-3.77-5.78-9-2.24-11.72l1.43-1.64,2.56-2.91,4.95-5.66,25.17-28.76L149,159.69c5.89-1.38,14.72-6.1,21.43-13.68l18.36,24.66A10.32,10.32,0,0,1,188.26,184Z"/><path class="cls-2" d="M125.72,50.66l.93-12.11c0-15.83-15.13-28.65-30.95-28.65S64.76,22.72,64.76,38.55l.93,12.09a5.54,5.54,0,0,0-2.35,1.2,5.69,5.69,0,0,0-2,4.36v6A5.73,5.73,0,0,0,67,67.89C67,82.84,85,97,95.7,97s28.69-14.16,28.69-29.11a5.72,5.72,0,0,0,5.69-5.73v-6A5.71,5.71,0,0,0,125.72,50.66Z"/><path class="cls-6" d="M125.72,50.66l.93-12.11c0-15.83-15.13-28.65-30.95-28.65V50.59c-4.18,8.89-6.88,21.77-6.88,21.77H95.7V97c10.74,0,28.69-14.16,28.69-29.11a5.72,5.72,0,0,0,5.69-5.73v-6A5.71,5.71,0,0,0,125.72,50.66Z"/><path class="cls-3" d="M87,53.89a4.52,4.52,0,1,1-4.68-4.37A4.52,4.52,0,0,1,87,53.89Z"/><path class="cls-7" d="M87,52.74a4.52,4.52,0,1,1-4.68-4.36A4.51,4.51,0,0,1,87,52.74Z"/><path class="cls-8" d="M85.19,51.45A1.14,1.14,0,1,1,84,50.36,1.14,1.14,0,0,1,85.19,51.45Z"/><path class="cls-3" d="M113.4,53.89a4.52,4.52,0,1,1-4.68-4.37A4.52,4.52,0,0,1,113.4,53.89Z"/><path class="cls-7" d="M113.4,52.74a4.52,4.52,0,1,1-4.68-4.36A4.51,4.51,0,0,1,113.4,52.74Z"/><path class="cls-8" d="M111.55,51.45a1.13,1.13,0,1,1-2.26.08,1.12,1.12,0,0,1,1.09-1.17A1.13,1.13,0,0,1,111.55,51.45Z"/><path class="cls-9" d="M126.21,19.88c.32-3.82-.91-9.27-3.92-17A2.51,2.51,0,0,0,118,2.21c-3.49,4.38-8.1,3.5-15.7.41-12.69-5.17-22-2-27.38,3.61-23,11.75-9,52.94-9,52.94s.49-21.45,8.4-31.3A146.41,146.41,0,0,0,95.7,30.53a149.23,149.23,0,0,0,22.08-2.66c5.86,6.25,7.72,31.3,7.72,31.3S134.57,36.33,126.21,19.88Z"/></g></g></g></g></svg>