<svg xmlns="http://www.w3.org/2000/svg" viewBox="0 0 640.41 162.76"><defs><style>.cls-1{fill:#fff;}</style></defs><title>Asset 1</title><g id="Layer_2" data-name="Layer 2"><g id="Layer_1-2" data-name="Layer 1"><path class="cls-1" d="M130.46,14.09c10.18,8.27,8.7,37.35,14.31,38.08s25.1-6.93,33.21-14.61C166.47,54.24,144,67.38,136.06,62.65S136.06,26.05,130.46,14.09Z"/><path class="cls-1" d="M127.8,35.64C118.94,21,106.25,10,102.12,8.63S77.47,18.82,69.94,30.33C78.65,9.66,96.21-3.47,105.81.81s19.48,9.74,20.81,10.92C127.06,19.11,129.27,22.21,127.8,35.64Z"/><path class="cls-1" d="M78.83,44.69c2.57,11,35.92,25.65,50.38,37.78S112.88,120.72,76,143.34C103.08,118.15,132,99.73,97.49,86S50.14,59.85,78.83,44.69Z"/><path class="cls-1" d="M59.47,62.65c-2.56,10.49-13.29,29.15-26.82,38S12.13,123.75,0,152.44c22.86-35.22,44.31-35.92,52.94-47.35s23.3-27,23.3-27C69.24,75.4,62.76,70.53,59.47,62.65Z"/><circle class="cls-1" cx="150.86" cy="18.82" r="10.28" transform="translate(-1.16 20.24) rotate(-7.65)"/><path class="cls-1" d="M114.61,145l-3.14,1.35-.14-.15-.33-.32-.37-.34-.4-.34-.43-.35-.44-.34-.43-.32-.42-.28c-.13-.09-.25-.18-.37-.25l-.35-.23-.5-5.16.25-.18.48-.36.26-.21.27-.22.27-.22.25-.22.44-.41.18-.17h0l3.11,1.55a10.47,10.47,0,0,0-4.53-4.4l1.39,2.77-.22.16c-.14.1-.31.22-.48.36l-.26.2-.27.22-.27.23-.25.22-.44.4-.19.19h0l-5.52-.69-2.5,4.39h0l-.5.1-.89.21-.5.12-.51.13-.51.14-.5.14L95,143l-.56.18-2.31-2.82.1-.26c0-.06,0-.12.08-.19l.08-.2c.07-.15.13-.31.21-.47l.23-.51.27-.54.3-.54c.11-.18.21-.37.32-.54l.16-.26.16-.25c.1-.16.21-.32.31-.46l.3-.41c.09-.13.18-.24.26-.34v0l4.4-1.21.15.24.4.61.24.34.25.35.25.34c.08.12.17.22.25.33s.31.41.45.58l.46.55s-.14-.25-.37-.62l-.41-.61-.23-.34-.25-.34-.25-.35-.25-.33-.45-.57a2.13,2.13,0,0,0-.18-.22l1.18-1.8c.22,0,.44-.07.65-.08a3,3,0,0,1,.42,0l.42,0h.15s0,0,0,0h.65l.38,0,.37,0a13.39,13.39,0,0,1,2.51.45,14.27,14.27,0,0,1,1.56.55l.54.24-.51-.29a11.61,11.61,0,0,0-1.52-.7,12.17,12.17,0,0,0-2.53-.65l-.39-.05a2.71,2.71,0,0,0-.4,0l-.4,0h-.86l-.45,0c-.3,0-.6,0-.92.08a14,14,0,0,0-1.92.4,12.88,12.88,0,0,0-2,.76,13.47,13.47,0,0,0-1.92,1.14,12.85,12.85,0,0,0-1.77,1.54,13.44,13.44,0,0,0-1.5,1.91A12.47,12.47,0,0,0,90,139.75a13.31,13.31,0,0,0-.71,2.43l0,.31c0,.11,0,.22,0,.32l0,.32a3.16,3.16,0,0,0,0,.32c0,.22,0,.44,0,.64v.38l0,0v0l0,0,0,.16a12.68,12.68,0,0,0,.29,2.54,12.53,12.53,0,0,0,.77,2.41,12.8,12.8,0,0,0,2.77,4,13,13,0,0,0,3.76,2.57,12.55,12.55,0,0,0,2,.7l.49.11.49.1.48.07.47.06.24,0h.23l.46,0h.65l.22,0,.43,0h.2l.2,0,.4-.06.19,0,.1,0,.09,0a11.31,11.31,0,0,0,2.51-.73l.47-.2.11-.05.11,0,.19-.1a6.42,6.42,0,0,0,.62-.34l.51-.31-.53.26c-.18.09-.4.17-.65.28s-.56.2-.9.32c-.16.06-.35.1-.54.15l-.29.08-.15,0-.15,0-.66.13-.7.1h-.24l-.1-.24c0-.07-.07-.15-.1-.23l1.73-2.29.17,0,.35-.07c.13,0,.29-.06.45-.11l.53-.15c.19-.06.38-.12.58-.2l.31-.11.31-.13c.2-.09.41-.18.61-.29l.31-.16.15-.08.14-.08.56-.35.26-.18.24-.19a3.76,3.76,0,0,0,.42-.36l.33-.32c.09-.09.16-.18.22-.25l1.6.36A10.51,10.51,0,0,0,114.61,145ZM95,143.14l.89-.21.5-.12.51-.13.51-.14.5-.14.87-.26.51-.16,3.19,3.62V146c0,.18,0,.38,0,.59l0,.65c0,.23,0,.47,0,.7l-.06.73c0,.24,0,.48-.09.72s0,.23,0,.35,0,.23,0,.34-.08.45-.11.65-.08.4-.11.58l-.06.28-4.37,1.06-.31-.27-.2-.17-.2-.19-.44-.39-.47-.44-.48-.45-.47-.46c-.15-.15-.31-.29-.45-.44L93.7,149l-.47-.47,1.19-5.27Zm-3-5.08a12.59,12.59,0,0,1,1.36-1.79,12.37,12.37,0,0,1,1.45-1.36l.09.42,0,0-.29.32-.32.39c-.11.14-.23.29-.34.46l-.17.24-.17.26c-.11.18-.22.36-.32.54s-.2.38-.3.56-.18.37-.26.55-.15.36-.22.53-.12.33-.17.48-.1.28-.13.41l-.08.29-1.6,1.31A12.33,12.33,0,0,1,92,138.06Zm1.6,15a12.64,12.64,0,0,1-1.4-1.75,12.77,12.77,0,0,1-1.09-2L91,149l2.23-.39c.11.14.25.31.42.5l.36.4.41.44.44.45.47.47.49.45.24.21a1.51,1.51,0,0,0,.23.21l.47.38c.14.12.28.24.42.34l.3.21.59,2.84-.14.07a2.55,2.55,0,0,0-.33.17.41.41,0,0,0-.11.07l-.44-.21A12.63,12.63,0,0,1,93.58,153.05Zm9.63,3.78H102l-.43,0-.43,0-.22,0-.22,0c-.15,0-.3,0-.45-.08l-.46-.09-.45-.12a3.47,3.47,0,0,1-.46-.13,11.93,11.93,0,0,1-1.22-.44l.33-.15.21-.11a11,11,0,0,0,2.42.69,9.51,9.51,0,0,0,2.78.17l.09.18c0,.06.07.12.11.17Zm7.72-5.65c-.1.08-.23.18-.35.29l-.1.08-.11.08-.23.17c-.15.11-.33.22-.5.33s-.37.23-.56.34-.4.21-.59.31-.41.2-.61.29l-.6.26-.57.21-.51.19-.44.14-.34.11-.14,0h0L102,151.56c0-.09.05-.18.07-.27s.1-.37.15-.58.1-.42.13-.65.09-.46.12-.7.06-.48.09-.72l.06-.73c0-.24,0-.48,0-.71s0-.45,0-.66,0-.41,0-.6,0-.24,0-.35l5.21-2h0l.28.22.74.58.42.33.44.34c.29.22.57.46.84.67l.39.32.34.29.17.14-.23,4.48Z"/><path class="cls-1" d="M158.35,127.19l6.12-7c5.79,6,13.82,9.95,22.17,9.95,10.54,0,16.79-5.25,16.79-13.06,0-8.2-5.82-10.82-13.4-14.13l-11.54-5.09C171,94.65,162.22,89,162.22,77.16c0-12.27,10.69-21.32,25.29-21.32a33.16,33.16,0,0,1,23.66,10l-5.42,6.57a25.68,25.68,0,0,0-18.24-7.54c-9,0-15,4.55-15,11.74,0,7.74,7,10.63,13.3,13.29l11.46,5c9.29,4,16.55,9.53,16.55,21.48,0,12.69-10.49,22.83-27.38,22.83A38.52,38.52,0,0,1,158.35,127.19Z"/><path class="cls-1" d="M228.61,78.14h8.32l.85,6.87h.33c5.38-4.47,12.08-8.33,19-8.33,15.38,0,23.6,11.93,23.6,30.32,0,20.28-12.18,32.12-25.78,32.12-5.45,0-11-2.51-16.49-6.89l.27,10.38v20.15H228.61Zm41.66,29c0-13.14-4.48-21.94-15.69-21.94-5,0-10.11,2.77-15.9,8.12v31.19c5.39,4.53,10.56,6.19,14.49,6.19C263,130.65,270.27,121.78,270.27,107.09Z"/><path class="cls-1" d="M292.13,108c0-19.86,13-31.3,27.57-31.3s27.58,11.44,27.58,31.3c0,19.7-13,31.14-27.58,31.14S292.13,127.68,292.13,108Zm44.74,0c0-13.64-6.93-22.92-17.17-22.92S302.53,94.34,302.53,108s6.94,22.76,17.17,22.76S336.87,121.61,336.87,108Z"/><path class="cls-1" d="M362.9,78.14h8.31L372.06,89h.34c4.14-7.55,10.22-12.3,16.92-12.3a13.83,13.83,0,0,1,6.35,1.22l-1.88,8.83a16.75,16.75,0,0,0-5.77-1c-5,0-11,3.63-15,13.69v38.21H362.9Z"/><path class="cls-1" d="M418.35,75.71H397.29V58.08h63.17V75.71h-21v61.94H418.35Z"/><path class="cls-1" d="M457.52,107.05C457.52,87.22,472,75,486.91,75c18.11,0,26.68,13.22,26.68,29.63a44.43,44.43,0,0,1-.85,8.81H477.85c1.95,7.35,7.34,9.8,14.2,9.8,4.16,0,8.08-1.23,12.48-3.68L511.39,132a41.26,41.26,0,0,1-22.28,7.1C471.24,139.12,457.52,127.37,457.52,107.05Zm38.2-7.35c0-4.65-2-8.81-8.33-8.81-4.65,0-8.56,2.69-9.79,8.81Z"/><path class="cls-1" d="M521.91,107.05c0-20.32,15.43-32.08,32.81-32.08a26.89,26.89,0,0,1,17.87,6.37L562.8,94.81c-2.69-2.21-4.65-2.94-6.85-2.94-7.84,0-12.49,5.87-12.49,15.18s5.14,15.18,11.75,15.18c3.43,0,6.86-1.72,9.79-3.92L573.08,132c-6.12,5.39-14,7.1-20.32,7.1C535.38,139.12,521.91,127.37,521.91,107.05Z"/><path class="cls-1" d="M582.87,52.45h21.06V72.28l-1,10.53c4.16-3.67,10-7.84,18.36-7.84,13.47,0,19.1,9.8,19.1,25v37.7h-21v-35c0-7.83-2-9.79-6.13-9.79-3.91,0-6.12,1.71-9.3,4.65v40.15H582.87Z"/></g></g></svg>